<svg width="800" height="432" viewBox="0 0 800 432" fill="none" xmlns="http://www.w3.org/2000/svg">
<path d="M40.5587 27.7688V133.917H53.9169C78.403 133.917 94.7216 122.956 94.7216 80.0266C94.7216 36.6331 77.1648 27.7688 53.4167 27.7688H40.5587ZM136.765 80.0266C136.765 145.109 95.2218 161.678 51.4404 161.678H0V0H47.7339C93.4916 0 136.765 13.3043 136.765 80.0266Z" fill="black"/>
<path d="M40.5587 27.7688V133.917H53.9169C78.403 133.917 94.7216 122.956 94.7216 80.0266C94.7216 36.6331 77.1648 27.7688 53.4167 27.7688H40.5587ZM136.765 80.0266C136.765 145.109 95.2218 161.678 51.4404 161.678H0V0H47.7339C93.4916 0 136.765 13.3043 136.765 80.0266Z" fill="url(#paint0_linear_1064_5964)"/>
<path d="M40.5587 27.7688V133.917H53.9169C78.403 133.917 94.7216 122.956 94.7216 80.0266C94.7216 36.6331 77.1648 27.7688 53.4167 27.7688H40.5587ZM136.765 80.0266C136.765 145.109 95.2218 161.678 51.4404 161.678H0V0H47.7339C93.4916 0 136.765 13.3043 136.765 80.0266Z" fill="white"/>
<path d="M223.833 127.377V105.448H214.189C196.378 105.448 187.718 111.281 187.718 123.649C187.718 133.442 193.409 139.274 203.053 139.274C212.213 139.274 219.134 134.842 223.833 127.377ZM271.066 140.906L262.907 164.931C247.326 163.771 237.183 159.338 231.254 146.97C221.848 160.731 207.26 165.635 191.679 165.635C165.463 165.635 148.89 149.538 148.89 126.905C148.89 99.8483 170.654 85.1518 210.474 85.1518H223.833V79.7914C223.833 65.0871 217.65 60.6549 201.577 60.6549C193.163 60.6549 180.297 62.9909 167.193 67.191L158.288 42.9262C174.86 37.094 192.917 33.8298 207.76 33.8298C245.842 33.8298 262.169 48.9905 262.169 77.6875V125.745C262.169 135.306 264.883 138.81 271.066 140.906Z" fill="black"/>
<path d="M223.833 127.377V105.448H214.189C196.378 105.448 187.718 111.281 187.718 123.649C187.718 133.442 193.409 139.274 203.053 139.274C212.213 139.274 219.134 134.842 223.833 127.377ZM271.066 140.906L262.907 164.931C247.326 163.771 237.183 159.338 231.254 146.97C221.848 160.731 207.26 165.635 191.679 165.635C165.463 165.635 148.89 149.538 148.89 126.905C148.89 99.8483 170.654 85.1518 210.474 85.1518H223.833V79.7914C223.833 65.0871 217.65 60.6549 201.577 60.6549C193.163 60.6549 180.297 62.9909 167.193 67.191L158.288 42.9262C174.86 37.094 192.917 33.8298 207.76 33.8298C245.842 33.8298 262.169 48.9905 262.169 77.6875V125.745C262.169 135.306 264.883 138.81 271.066 140.906Z" fill="url(#paint1_linear_1064_5964)"/>
<path d="M223.833 127.377V105.448H214.189C196.378 105.448 187.718 111.281 187.718 123.649C187.718 133.442 193.409 139.274 203.053 139.274C212.213 139.274 219.134 134.842 223.833 127.377ZM271.066 140.906L262.907 164.931C247.326 163.771 237.183 159.338 231.254 146.97C221.848 160.731 207.26 165.635 191.679 165.635C165.463 165.635 148.89 149.538 148.89 126.905C148.89 99.8483 170.654 85.1518 210.474 85.1518H223.833V79.7914C223.833 65.0871 217.65 60.6549 201.577 60.6549C193.163 60.6549 180.297 62.9909 167.193 67.191L158.288 42.9262C174.86 37.094 192.917 33.8298 207.76 33.8298C245.842 33.8298 262.169 48.9905 262.169 77.6875V125.745C262.169 135.306 264.883 138.81 271.066 140.906Z" fill="white"/>
<path d="M377.665 35.9438L371.482 71.6333C367.275 70.6973 364.06 70.0012 359.608 70.0012C343.289 70.0012 336.614 81.4335 332.407 100.33V161.684H293.333V37.808H327.462L330.677 61.8407C336.614 44.5684 349.472 34.304 364.552 34.304C369.505 34.304 373.458 34.7758 377.665 35.9438Z" fill="black"/>
<path d="M377.665 35.9438L371.482 71.6333C367.275 70.6973 364.06 70.0012 359.608 70.0012C343.289 70.0012 336.614 81.4335 332.407 100.33V161.684H293.333V37.808H327.462L330.677 61.8407C336.614 44.5684 349.472 34.304 364.552 34.304C369.505 34.304 373.458 34.7758 377.665 35.9438Z" fill="url(#paint2_linear_1064_5964)"/>
<path d="M377.665 35.9438L371.482 71.6333C367.275 70.6973 364.06 70.0012 359.608 70.0012C343.289 70.0012 336.614 81.4335 332.407 100.33V161.684H293.333V37.808H327.462L330.677 61.8407C336.614 44.5684 349.472 34.304 364.552 34.304C369.505 34.304 373.458 34.7758 377.665 35.9438Z" fill="white"/>
<path d="M433.797 27.7756V133.923H447.155C471.633 133.923 487.951 122.963 487.951 80.0335C487.951 36.64 470.403 27.7756 446.655 27.7756H433.797ZM530.003 80.0335C530.003 145.116 488.452 161.684 444.678 161.684H393.238V0.00685404H440.972C486.721 0.00685404 530.003 13.3111 530.003 80.0335Z" fill="black"/>
<path d="M433.797 27.7756V133.923H447.155C471.633 133.923 487.951 122.963 487.951 80.0335C487.951 36.64 470.403 27.7756 446.655 27.7756H433.797ZM530.003 80.0335C530.003 145.116 488.452 161.684 444.678 161.684H393.238V0.00685404H440.972C486.721 0.00685404 530.003 13.3111 530.003 80.0335Z" fill="url(#paint3_linear_1064_5964)"/>
<path d="M433.797 27.7756V133.923H447.155C471.633 133.923 487.951 122.963 487.951 80.0335C487.951 36.64 470.403 27.7756 446.655 27.7756H433.797ZM530.003 80.0335C530.003 145.116 488.452 161.684 444.678 161.684H393.238V0.00685404H440.972C486.721 0.00685404 530.003 13.3111 530.003 80.0335Z" fill="white"/>
<path d="M586.646 99.626C586.646 127.155 594.559 138.587 610.394 138.587C626.212 138.587 634.125 126.691 634.125 99.858C634.125 72.329 626.212 60.8967 610.394 60.8967C594.559 60.8967 586.646 72.7932 586.646 99.626ZM674.684 99.858C674.684 139.516 650.452 165.644 610.394 165.644C570.565 165.644 546.087 141.38 546.087 99.626C546.087 59.9685 570.327 33.8395 610.394 33.8395C650.452 33.8395 674.684 58.1043 674.684 99.858Z" fill="black"/>
<path d="M586.646 99.626C586.646 127.155 594.559 138.587 610.394 138.587C626.212 138.587 634.125 126.691 634.125 99.858C634.125 72.329 626.212 60.8967 610.394 60.8967C594.559 60.8967 586.646 72.7932 586.646 99.626ZM674.684 99.858C674.684 139.516 650.452 165.644 610.394 165.644C570.565 165.644 546.087 141.38 546.087 99.626C546.087 59.9685 570.327 33.8395 610.394 33.8395C650.452 33.8395 674.684 58.1043 674.684 99.858Z" fill="url(#paint4_linear_1064_5964)"/>
<path d="M586.646 99.626C586.646 127.155 594.559 138.587 610.394 138.587C626.212 138.587 634.125 126.691 634.125 99.858C634.125 72.329 626.212 60.8967 610.394 60.8967C594.559 60.8967 586.646 72.7932 586.646 99.626ZM674.684 99.858C674.684 139.516 650.452 165.644 610.394 165.644C570.565 165.644 546.087 141.38 546.087 99.626C546.087 59.9685 570.327 33.8395 610.394 33.8395C650.452 33.8395 674.684 58.1043 674.684 99.858Z" fill="white"/>
<path d="M799.857 49.0002L783.03 70.929C774.624 64.8647 766.957 62.0647 758.052 62.0647C741.241 62.0647 731.598 72.7932 731.598 100.562C731.598 128.091 741.979 136.491 757.56 136.491C766.957 136.491 773.386 133.683 782.792 128.091L799.857 150.948C787.729 160.044 773.64 165.644 755.583 165.644C715.271 165.644 690.539 139.987 690.539 100.786C690.539 61.3685 715.517 33.8395 754.845 33.8395C773.14 33.8395 787.245 38.9679 799.857 49.0002Z" fill="black"/>
<path d="M799.857 49.0002L783.03 70.929C774.624 64.8647 766.957 62.0647 758.052 62.0647C741.241 62.0647 731.598 72.7932 731.598 100.562C731.598 128.091 741.979 136.491 757.56 136.491C766.957 136.491 773.386 133.683 782.792 128.091L799.857 150.948C787.729 160.044 773.64 165.644 755.583 165.644C715.271 165.644 690.539 139.987 690.539 100.786C690.539 61.3685 715.517 33.8395 754.845 33.8395C773.14 33.8395 787.245 38.9679 799.857 49.0002Z" fill="url(#paint5_linear_1064_5964)"/>
<path d="M799.857 49.0002L783.03 70.929C774.624 64.8647 766.957 62.0647 758.052 62.0647C741.241 62.0647 731.598 72.7932 731.598 100.562C731.598 128.091 741.979 136.491 757.56 136.491C766.957 136.491 773.386 133.683 782.792 128.091L799.857 150.948C787.729 160.044 773.64 165.644 755.583 165.644C715.271 165.644 690.539 139.987 690.539 100.786C690.539 61.3685 715.517 33.8395 754.845 33.8395C773.14 33.8395 787.245 38.9679 799.857 49.0002Z" fill="white"/>
<path d="M122.693 281.337L64.6429 292.104L61.6006 278.467L72.753 275.838C65.6515 270.098 62.109 263.09 62.109 254.791C62.109 247.783 64.7659 241.726 70.0879 236.629C75.4099 231.524 82.2981 228.971 90.7526 228.971C97.1735 228.971 104.021 230.889 111.286 234.71L107.481 252.64C104.603 250.412 101.315 249.291 97.5917 249.291C94.0492 249.291 91.1709 250.412 88.9814 252.64C86.7837 254.876 85.6767 257.513 85.6767 260.538C85.6767 265.318 87.7923 268.83 92.0155 271.057L118.634 264.359L122.693 281.337ZM183.785 207.452V371.961H77.0663C62.6994 371.961 50.317 371.094 39.9272 369.331C29.5293 367.575 20.2793 362.996 12.161 355.586C4.05094 348.176 0 336.65 0 321.033C0 310.351 1.93526 298.308 5.8304 284.926L42.5841 286.837L41.3213 298.795C40.4684 305.486 40.0502 309.709 40.0502 311.473C40.0502 317.05 42.2069 322.271 46.5121 327.129C50.8254 331.994 58.8125 334.423 70.4733 334.423H140.184V207.452H183.785Z" fill="black"/>
<path d="M122.693 281.337L64.6429 292.104L61.6006 278.467L72.753 275.838C65.6515 270.098 62.109 263.09 62.109 254.791C62.109 247.783 64.7659 241.726 70.0879 236.629C75.4099 231.524 82.2981 228.971 90.7526 228.971C97.1735 228.971 104.021 230.889 111.286 234.71L107.481 252.64C104.603 250.412 101.315 249.291 97.5917 249.291C94.0492 249.291 91.1709 250.412 88.9814 252.64C86.7837 254.876 85.6767 257.513 85.6767 260.538C85.6767 265.318 87.7923 268.83 92.0155 271.057L118.634 264.359L122.693 281.337ZM183.785 207.452V371.961H77.0663C62.6994 371.961 50.317 371.094 39.9272 369.331C29.5293 367.575 20.2793 362.996 12.161 355.586C4.05094 348.176 0 336.65 0 321.033C0 310.351 1.93526 298.308 5.8304 284.926L42.5841 286.837L41.3213 298.795C40.4684 305.486 40.0502 309.709 40.0502 311.473C40.0502 317.05 42.2069 322.271 46.5121 327.129C50.8254 331.994 58.8125 334.423 70.4733 334.423H140.184V207.452H183.785Z" fill="url(#paint6_linear_1064_5964)"/>
<path d="M122.693 281.337L64.6429 292.104L61.6006 278.467L72.753 275.838C65.6515 270.098 62.109 263.09 62.109 254.791C62.109 247.783 64.7659 241.726 70.0879 236.629C75.4099 231.524 82.2981 228.971 90.7526 228.971C97.1735 228.971 104.021 230.889 111.286 234.71L107.481 252.64C104.603 250.412 101.315 249.291 97.5917 249.291C94.0492 249.291 91.1709 250.412 88.9814 252.64C86.7837 254.876 85.6767 257.513 85.6767 260.538C85.6767 265.318 87.7923 268.83 92.0155 271.057L118.634 264.359L122.693 281.337ZM183.785 207.452V371.961H77.0663C62.6994 371.961 50.317 371.094 39.9272 369.331C29.5293 367.575 20.2793 362.996 12.161 355.586C4.05094 348.176 0 336.65 0 321.033C0 310.351 1.93526 298.308 5.8304 284.926L42.5841 286.837L41.3213 298.795C40.4684 305.486 40.0502 309.709 40.0502 311.473C40.0502 317.05 42.2069 322.271 46.5121 327.129C50.8254 331.994 58.8125 334.423 70.4733 334.423H140.184V207.452H183.785Z" fill="white"/>
<path d="M261.46 328.674C264.757 332.495 271.137 334.414 280.6 334.414H295.811V285.389C290.399 285.072 285.413 284.917 280.854 284.917C276.459 284.917 272.572 285.389 269.193 286.348C265.806 287.3 262.854 289.736 260.32 293.642C257.786 297.556 256.515 303.566 256.515 311.696C256.515 319.183 258.164 324.845 261.46 328.674ZM337.001 381.28C335.394 392.434 330.244 403.557 321.544 414.634C312.835 425.71 299.018 431.256 280.091 431.256C269.103 431.256 253.055 429.493 231.923 425.989V388.69C255.08 392.032 269.701 393.71 275.786 393.71C283.216 393.71 288.201 392.032 290.743 388.69C293.277 385.341 294.45 379.757 294.286 371.952H269.956C253.727 371.952 241.435 369.005 233.071 363.103C224.706 357.209 219.253 350.155 216.719 341.948C214.185 333.733 212.914 324.528 212.914 314.334C212.914 295.035 215.662 280.531 221.156 270.809C226.642 261.086 233.661 254.743 242.189 251.804C250.726 248.849 261.165 247.371 273.498 247.371C285.331 247.371 297.164 248.091 308.989 249.53C320.814 250.961 330.958 252.554 339.412 254.31V346.844C339.412 358.648 338.609 370.119 337.001 381.28Z" fill="black"/>
<path d="M261.46 328.674C264.757 332.495 271.137 334.414 280.6 334.414H295.811V285.389C290.399 285.072 285.413 284.917 280.854 284.917C276.459 284.917 272.572 285.389 269.193 286.348C265.806 287.3 262.854 289.736 260.32 293.642C257.786 297.556 256.515 303.566 256.515 311.696C256.515 319.183 258.164 324.845 261.46 328.674ZM337.001 381.28C335.394 392.434 330.244 403.557 321.544 414.634C312.835 425.71 299.018 431.256 280.091 431.256C269.103 431.256 253.055 429.493 231.923 425.989V388.69C255.08 392.032 269.701 393.71 275.786 393.71C283.216 393.71 288.201 392.032 290.743 388.69C293.277 385.341 294.45 379.757 294.286 371.952H269.956C253.727 371.952 241.435 369.005 233.071 363.103C224.706 357.209 219.253 350.155 216.719 341.948C214.185 333.733 212.914 324.528 212.914 314.334C212.914 295.035 215.662 280.531 221.156 270.809C226.642 261.086 233.661 254.743 242.189 251.804C250.726 248.849 261.165 247.371 273.498 247.371C285.331 247.371 297.164 248.091 308.989 249.53C320.814 250.961 330.958 252.554 339.412 254.31V346.844C339.412 358.648 338.609 370.119 337.001 381.28Z" fill="url(#paint7_linear_1064_5964)"/>
<path d="M261.46 328.674C264.757 332.495 271.137 334.414 280.6 334.414H295.811V285.389C290.399 285.072 285.413 284.917 280.854 284.917C276.459 284.917 272.572 285.389 269.193 286.348C265.806 287.3 262.854 289.736 260.32 293.642C257.786 297.556 256.515 303.566 256.515 311.696C256.515 319.183 258.164 324.845 261.46 328.674ZM337.001 381.28C335.394 392.434 330.244 403.557 321.544 414.634C312.835 425.71 299.018 431.256 280.091 431.256C269.103 431.256 253.055 429.493 231.923 425.989V388.69C255.08 392.032 269.701 393.71 275.786 393.71C283.216 393.71 288.201 392.032 290.743 388.69C293.277 385.341 294.45 379.757 294.286 371.952H269.956C253.727 371.952 241.435 369.005 233.071 363.103C224.706 357.209 219.253 350.155 216.719 341.948C214.185 333.733 212.914 324.528 212.914 314.334C212.914 295.035 215.662 280.531 221.156 270.809C226.642 261.086 233.661 254.743 242.189 251.804C250.726 248.849 261.165 247.371 273.498 247.371C285.331 247.371 297.164 248.091 308.989 249.53C320.814 250.961 330.958 252.554 339.412 254.31V346.844C339.412 358.648 338.609 370.119 337.001 381.28Z" fill="white"/>
<path d="M452.487 257.188C462.959 264.204 470.946 274.244 476.448 287.316C481.934 300.389 484.681 315.851 484.681 333.711V371.961H360.463V334.423H441.072C440.572 317.05 436.677 304.449 429.42 296.645C422.154 288.832 413.527 284.926 403.556 284.926H374.412L371.115 252.168C390.206 248.502 404.745 246.669 414.716 246.669C429.42 246.669 442.007 250.18 452.487 257.188Z" fill="black"/>
<path d="M452.487 257.188C462.959 264.204 470.946 274.244 476.448 287.316C481.934 300.389 484.681 315.851 484.681 333.711V371.961H360.463V334.423H441.072C440.572 317.05 436.677 304.449 429.42 296.645C422.154 288.832 413.527 284.926 403.556 284.926H374.412L371.115 252.168C390.206 248.502 404.745 246.669 414.716 246.669C429.42 246.669 442.007 250.18 452.487 257.188Z" fill="url(#paint8_linear_1064_5964)"/>
<path d="M452.487 257.188C462.959 264.204 470.946 274.244 476.448 287.316C481.934 300.389 484.681 315.851 484.681 333.711V371.961H360.463V334.423H441.072C440.572 317.05 436.677 304.449 429.42 296.645C422.154 288.832 413.527 284.926 403.556 284.926H374.412L371.115 252.168C390.206 248.502 404.745 246.669 414.716 246.669C429.42 246.669 442.007 250.18 452.487 257.188Z" fill="white"/>
<path d="M506.299 430.291V393.232L510.104 393.464C519.231 393.464 523.791 386.936 523.791 373.864V252.153H567.392V367.885C567.392 387.331 563.849 402.716 556.748 414.032C549.646 425.348 538.92 431.01 524.553 431.01C520.83 431.01 514.746 430.771 506.299 430.291Z" fill="black"/>
<path d="M506.299 430.291V393.232L510.104 393.464C519.231 393.464 523.791 386.936 523.791 373.864V252.153H567.392V367.885C567.392 387.331 563.849 402.716 556.748 414.032C549.646 425.348 538.92 431.01 524.553 431.01C520.83 431.01 514.746 430.771 506.299 430.291Z" fill="url(#paint9_linear_1064_5964)"/>
<path d="M506.299 430.291V393.232L510.104 393.464C519.231 393.464 523.791 386.936 523.791 373.864V252.153H567.392V367.885C567.392 387.331 563.849 402.716 556.748 414.032C549.646 425.348 538.92 431.01 524.553 431.01C520.83 431.01 514.746 430.771 506.299 430.291Z" fill="white"/>
<path d="M599.081 207.451H642.682V371.96H599.081V207.451Z" fill="black"/>
<path d="M599.081 207.451H642.682V371.96H599.081V207.451Z" fill="url(#paint10_linear_1064_5964)"/>
<path d="M599.081 207.451H642.682V371.96H599.081V207.451Z" fill="white"/>
<path d="M767.66 257.188C778.132 264.204 786.127 274.244 791.621 287.316C797.107 300.389 799.863 315.851 799.863 333.711V371.961H675.645V334.423H756.254C755.753 317.05 751.858 304.449 744.593 296.645C737.327 288.832 728.709 284.926 718.737 284.926H689.585L686.289 252.168C705.379 248.502 719.918 246.669 729.898 246.669C744.593 246.669 757.188 250.18 767.66 257.188Z" fill="black"/>
<path d="M767.66 257.188C778.132 264.204 786.127 274.244 791.621 287.316C797.107 300.389 799.863 315.851 799.863 333.711V371.961H675.645V334.423H756.254C755.753 317.05 751.858 304.449 744.593 296.645C737.327 288.832 728.709 284.926 718.737 284.926H689.585L686.289 252.168C705.379 248.502 719.918 246.669 729.898 246.669C744.593 246.669 757.188 250.18 767.66 257.188Z" fill="url(#paint11_linear_1064_5964)"/>
<path d="M767.66 257.188C778.132 264.204 786.127 274.244 791.621 287.316C797.107 300.389 799.863 315.851 799.863 333.711V371.961H675.645V334.423H756.254C755.753 317.05 751.858 304.449 744.593 296.645C737.327 288.832 728.709 284.926 718.737 284.926H689.585L686.289 252.168C705.379 248.502 719.918 246.669 729.898 246.669C744.593 246.669 757.188 250.18 767.66 257.188Z" fill="white"/>
<defs>
<linearGradient id="paint0_linear_1064_5964" x1="170.467" y1="-9.94043e-06" x2="991.907" y2="521.055" gradientUnits="userSpaceOnUse">
<stop stop-color="#119098"/>
<stop offset="1" stop-color="#30CBD6"/>
</linearGradient>
<linearGradient id="paint1_linear_1064_5964" x1="170.467" y1="-9.94043e-06" x2="991.907" y2="521.055" gradientUnits="userSpaceOnUse">
<stop stop-color="#119098"/>
<stop offset="1" stop-color="#30CBD6"/>
</linearGradient>
<linearGradient id="paint2_linear_1064_5964" x1="170.467" y1="-9.94043e-06" x2="991.907" y2="521.055" gradientUnits="userSpaceOnUse">
<stop stop-color="#119098"/>
<stop offset="1" stop-color="#30CBD6"/>
</linearGradient>
<linearGradient id="paint3_linear_1064_5964" x1="170.467" y1="-9.94043e-06" x2="991.907" y2="521.055" gradientUnits="userSpaceOnUse">
<stop stop-color="#119098"/>
<stop offset="1" stop-color="#30CBD6"/>
</linearGradient>
<linearGradient id="paint4_linear_1064_5964" x1="170.467" y1="-9.94043e-06" x2="991.907" y2="521.055" gradientUnits="userSpaceOnUse">
<stop stop-color="#119098"/>
<stop offset="1" stop-color="#30CBD6"/>
</linearGradient>
<linearGradient id="paint5_linear_1064_5964" x1="170.467" y1="-9.94043e-06" x2="991.907" y2="521.055" gradientUnits="userSpaceOnUse">
<stop stop-color="#119098"/>
<stop offset="1" stop-color="#30CBD6"/>
</linearGradient>
<linearGradient id="paint6_linear_1064_5964" x1="170.467" y1="-9.94043e-06" x2="991.907" y2="521.055" gradientUnits="userSpaceOnUse">
<stop stop-color="#119098"/>
<stop offset="1" stop-color="#30CBD6"/>
</linearGradient>
<linearGradient id="paint7_linear_1064_5964" x1="170.467" y1="-9.94043e-06" x2="991.907" y2="521.055" gradientUnits="userSpaceOnUse">
<stop stop-color="#119098"/>
<stop offset="1" stop-color="#30CBD6"/>
</linearGradient>
<linearGradient id="paint8_linear_1064_5964" x1="170.467" y1="-9.94043e-06" x2="991.907" y2="521.055" gradientUnits="userSpaceOnUse">
<stop stop-color="#119098"/>
<stop offset="1" stop-color="#30CBD6"/>
</linearGradient>
<linearGradient id="paint9_linear_1064_5964" x1="170.467" y1="-9.94043e-06" x2="991.907" y2="521.055" gradientUnits="userSpaceOnUse">
<stop stop-color="#119098"/>
<stop offset="1" stop-color="#30CBD6"/>
</linearGradient>
<linearGradient id="paint10_linear_1064_5964" x1="170.467" y1="-9.94043e-06" x2="991.907" y2="521.055" gradientUnits="userSpaceOnUse">
<stop stop-color="#119098"/>
<stop offset="1" stop-color="#30CBD6"/>
</linearGradient>
<linearGradient id="paint11_linear_1064_5964" x1="170.467" y1="-9.94043e-06" x2="991.907" y2="521.055" gradientUnits="userSpaceOnUse">
<stop stop-color="#119098"/>
<stop offset="1" stop-color="#30CBD6"/>
</linearGradient>
</defs>
</svg>
