<svg xmlns="http://www.w3.org/2000/svg" width="430.533" height="246.092" viewBox="0 0 430.533 246.092" fill="none">
  <path d="M 21.831 15.846 L 21.831 76.418 L 29.021 76.418 C 42.201 76.418 50.985 70.164 50.985 45.666 C 50.985 20.904 41.535 15.846 28.752 15.846 L 21.831 15.846 Z M 73.615 45.666 C 73.615 82.805 51.254 92.26 27.688 92.26 L 0 92.26 L 0 0 L 25.693 0 C 50.323 0 73.615 7.592 73.615 45.666 Z" fill="#1E4C4E" fill-rule="nonzero"></path>
  <path d="M 120.48 72.687 L 120.48 60.173 L 115.289 60.173 C 105.702 60.173 101.041 63.501 101.041 70.559 C 101.041 76.147 104.104 79.475 109.295 79.475 C 114.225 79.475 117.951 76.946 120.48 72.687 Z M 145.904 80.407 L 141.512 94.116 C 133.126 93.454 127.666 90.925 124.474 83.867 C 119.412 91.72 111.559 94.518 103.173 94.518 C 89.062 94.518 80.141 85.333 80.141 72.417 C 80.141 56.978 91.856 48.591 113.29 48.591 L 120.48 48.591 L 120.48 45.532 C 120.48 37.141 117.152 34.612 108.501 34.612 C 103.972 34.612 97.047 35.945 89.993 38.342 L 85.2 24.495 C 94.12 21.167 103.84 19.305 111.829 19.305 C 132.327 19.305 141.115 27.956 141.115 44.332 L 141.115 71.755 C 141.115 77.211 142.576 79.21 145.904 80.407 Z" fill="#1E4C4E" fill-rule="nonzero"></path>
  <path d="M 203.281 20.511 L 199.953 40.877 C 197.689 40.343 195.959 39.946 193.562 39.946 C 184.778 39.946 181.185 46.469 178.921 57.253 L 178.921 92.264 L 157.889 92.264 L 157.889 21.575 L 176.26 21.575 L 177.99 35.289 C 181.185 25.433 188.106 19.575 196.224 19.575 C 198.889 19.575 201.017 19.845 203.281 20.511 Z" fill="#1E4C4E" fill-rule="nonzero"></path>
  <path d="M 233.495 15.85 L 233.495 76.422 L 240.685 76.422 C 253.861 76.422 262.644 70.168 262.644 45.67 C 262.644 20.908 253.199 15.85 240.416 15.85 L 233.495 15.85 Z M 285.279 45.67 C 285.279 82.809 262.913 92.264 239.352 92.264 L 211.664 92.264 L 211.664 0.004 L 237.357 0.004 C 261.982 0.004 285.279 7.596 285.279 45.67 Z" fill="#1E4C4E" fill-rule="nonzero"></path>
  <path d="M 315.767 56.851 C 315.767 72.56 320.027 79.084 328.55 79.084 C 337.064 79.084 341.324 72.295 341.324 56.983 C 341.324 41.274 337.064 34.75 328.55 34.75 C 320.027 34.75 315.767 41.539 315.767 56.851 Z M 363.155 56.983 C 363.155 79.613 350.112 94.523 328.55 94.523 C 307.112 94.523 293.936 80.677 293.936 56.851 C 293.936 34.22 306.984 19.31 328.55 19.31 C 350.112 19.31 363.155 33.157 363.155 56.983 Z" fill="#1E4C4E" fill-rule="nonzero"></path>
  <path d="M 430.53 27.962 L 421.473 40.475 C 416.948 37.014 412.822 35.417 408.028 35.417 C 398.98 35.417 393.789 41.539 393.789 57.385 C 393.789 73.094 399.377 77.887 407.763 77.887 C 412.822 77.887 416.282 76.285 421.345 73.094 L 430.53 86.137 C 424.002 91.328 416.419 94.523 406.699 94.523 C 385.001 94.523 371.689 79.882 371.689 57.513 C 371.689 35.019 385.133 19.31 406.302 19.31 C 416.15 19.31 423.741 22.237 430.53 27.962 Z" fill="#1E4C4E" fill-rule="nonzero"></path>
  <path d="M 66.04 160.542 L 34.795 166.687 L 33.157 158.905 L 39.16 157.404 C 35.338 154.129 33.431 150.13 33.431 145.394 C 33.431 141.395 34.861 137.939 37.725 135.03 C 40.59 132.117 44.298 130.66 48.848 130.66 C 52.304 130.66 55.99 131.755 59.901 133.935 L 57.853 144.167 C 56.303 142.896 54.533 142.256 52.53 142.256 C 50.623 142.256 49.074 142.896 47.895 144.167 C 46.712 145.442 46.116 146.948 46.116 148.673 C 46.116 151.401 47.255 153.405 49.528 154.676 L 63.856 150.854 L 66.04 160.542 Z M 98.924 118.381 L 98.924 212.256 L 41.482 212.256 C 33.749 212.256 27.084 211.762 21.491 210.755 C 15.894 209.753 10.916 207.14 6.546 202.912 C 2.18 198.683 0 192.106 0 183.195 C 0 177.099 1.042 170.227 3.138 162.59 L 22.921 163.681 L 22.242 170.505 C 21.782 174.323 21.557 176.733 21.557 177.739 C 21.557 180.922 22.718 183.901 25.036 186.673 C 27.357 189.449 31.656 190.835 37.933 190.835 L 75.455 190.835 L 75.455 118.381 L 98.924 118.381 Z" fill="#1E4C4E" fill-rule="nonzero"></path>
  <path d="M 140.733 187.555 C 142.508 189.735 145.942 190.83 151.035 190.83 L 159.223 190.83 L 159.223 162.855 C 156.31 162.674 153.626 162.585 151.172 162.585 C 148.806 162.585 146.714 162.855 144.896 163.402 C 143.073 163.945 141.484 165.335 140.12 167.564 C 138.756 169.798 138.072 173.227 138.072 177.866 C 138.072 182.139 138.959 185.37 140.733 187.555 Z M 181.394 217.574 C 180.529 223.939 177.757 230.286 173.074 236.607 C 168.386 242.928 160.949 246.092 150.762 246.092 C 144.847 246.092 136.209 245.086 124.834 243.087 L 124.834 221.803 C 137.299 223.709 145.169 224.667 148.444 224.667 C 152.443 224.667 155.127 223.709 156.495 221.803 C 157.859 219.891 158.49 216.705 158.402 212.251 L 145.306 212.251 C 136.571 212.251 129.955 210.569 125.452 207.201 C 120.95 203.838 118.015 199.812 116.651 195.129 C 115.287 190.442 114.603 185.189 114.603 179.372 C 114.603 168.359 116.082 160.083 119.039 154.534 C 121.992 148.986 125.77 145.367 130.361 143.689 C 134.956 142.003 140.574 141.16 147.213 141.16 C 153.582 141.16 159.951 141.571 166.316 142.392 C 172.681 143.208 178.141 144.118 182.692 145.12 L 182.692 197.923 C 182.692 204.659 182.259 211.205 181.394 217.574 Z" fill="#1E4C4E" fill-rule="nonzero"></path>
  <path d="M 243.555 146.762 C 249.192 150.766 253.491 156.495 256.452 163.954 C 259.405 171.414 260.884 180.237 260.884 190.429 L 260.884 212.256 L 194.023 212.256 L 194.023 190.835 L 237.411 190.835 C 237.142 180.922 235.045 173.731 231.139 169.278 C 227.228 164.82 222.585 162.59 217.218 162.59 L 201.531 162.59 L 199.756 143.898 C 210.032 141.805 217.858 140.759 223.225 140.759 C 231.139 140.759 237.914 142.763 243.555 146.762 Z" fill="#1E4C4E" fill-rule="nonzero"></path>
  <path d="M 272.52 245.542 L 272.52 224.394 L 274.568 224.527 C 279.481 224.527 281.935 220.801 281.935 213.342 L 281.935 143.889 L 305.404 143.889 L 305.404 209.93 C 305.404 221.027 303.497 229.806 299.674 236.263 C 295.852 242.721 290.079 245.952 282.345 245.952 C 280.342 245.952 277.066 245.815 272.52 245.542 Z" fill="#1E4C4E" fill-rule="nonzero"></path>
  <path d="M 322.461 118.38 L 345.929 118.38 L 345.929 212.255 L 322.461 212.255 L 322.461 118.38 Z" fill="#1E4C4E" fill-rule="nonzero"></path>
  <path d="M 413.2 146.762 C 418.836 150.766 423.14 156.495 426.097 163.954 C 429.05 171.414 430.533 180.237 430.533 190.429 L 430.533 212.256 L 363.672 212.256 L 363.672 190.835 L 407.06 190.835 C 406.791 180.922 404.694 173.731 400.784 169.278 C 396.873 164.82 392.234 162.59 386.867 162.59 L 371.175 162.59 L 369.401 143.898 C 379.677 141.805 387.502 140.759 392.874 140.759 C 400.784 140.759 407.563 142.763 413.2 146.762 Z" fill="#1E4C4E" fill-rule="nonzero"></path>
</svg>