<svg xmlns="http://www.w3.org/2000/svg" width="122.658" height="70.112" viewBox="0 0 122.658 70.112" fill="none">
  <path d="M 6.22 4.515 L 6.22 21.771 L 8.268 21.771 C 12.023 21.771 14.525 19.99 14.525 13.01 C 14.525 5.956 11.833 4.515 8.191 4.515 L 6.22 4.515 Z M 20.973 13.01 C 20.973 23.591 14.602 26.285 7.888 26.285 L 0 26.285 L 0 0 L 7.32 0 C 14.337 0 20.973 2.163 20.973 13.01 Z" fill="#1E4C4E" fill-rule="nonzero"></path>
  <path d="M 34.325 20.708 L 34.325 17.143 L 32.846 17.143 C 30.115 17.143 28.787 18.092 28.787 20.102 C 28.787 21.694 29.659 22.643 31.138 22.643 C 32.543 22.643 33.604 21.922 34.325 20.708 Z M 41.568 22.908 L 40.317 26.814 C 37.927 26.625 36.372 25.905 35.463 23.894 C 34.02 26.131 31.783 26.928 29.394 26.928 C 25.374 26.928 22.832 24.311 22.832 20.632 C 22.832 16.233 26.17 13.844 32.276 13.844 L 34.325 13.844 L 34.325 12.972 C 34.325 10.582 33.377 9.861 30.912 9.861 C 29.622 9.861 27.649 10.241 25.639 10.924 L 24.273 6.979 C 26.815 6.031 29.584 5.5 31.86 5.5 C 37.7 5.5 40.204 7.965 40.204 12.63 L 40.204 20.443 C 40.204 21.997 40.62 22.567 41.568 22.908 Z" fill="#1E4C4E" fill-rule="nonzero"></path>
  <path d="M 57.914 5.844 L 56.966 11.646 C 56.321 11.494 55.828 11.381 55.145 11.381 C 52.643 11.381 51.619 13.239 50.974 16.311 L 50.974 26.286 L 44.982 26.286 L 44.982 6.147 L 50.216 6.147 L 50.709 10.054 C 51.619 7.246 53.591 5.577 55.904 5.577 C 56.663 5.577 57.269 5.654 57.914 5.844 Z" fill="#1E4C4E" fill-rule="nonzero"></path>
  <path d="M 66.522 4.516 L 66.522 21.773 L 68.571 21.773 C 72.324 21.773 74.827 19.991 74.827 13.012 C 74.827 5.957 72.136 4.516 68.494 4.516 L 66.522 4.516 Z M 81.275 13.012 C 81.275 23.593 74.903 26.286 68.191 26.286 L 60.302 26.286 L 60.302 0.001 L 67.622 0.001 C 74.638 0.001 81.275 2.164 81.275 13.012 Z" fill="#1E4C4E" fill-rule="nonzero"></path>
  <path d="M 89.962 16.197 C 89.962 20.672 91.175 22.531 93.603 22.531 C 96.029 22.531 97.242 20.597 97.242 16.235 C 97.242 11.759 96.029 9.9 93.603 9.9 C 91.175 9.9 89.962 11.834 89.962 16.197 Z M 103.462 16.235 C 103.462 22.682 99.746 26.93 93.603 26.93 C 87.496 26.93 83.742 22.985 83.742 16.197 C 83.742 9.75 87.459 5.502 93.603 5.502 C 99.746 5.502 103.462 9.446 103.462 16.235 Z" fill="#1E4C4E" fill-rule="nonzero"></path>
  <path d="M 122.657 7.966 L 120.077 11.531 C 118.788 10.546 117.612 10.09 116.247 10.09 C 113.669 10.09 112.19 11.834 112.19 16.349 C 112.19 20.825 113.782 22.19 116.171 22.19 C 117.612 22.19 118.598 21.734 120.04 20.825 L 122.657 24.54 C 120.797 26.019 118.637 26.93 115.868 26.93 C 109.686 26.93 105.893 22.759 105.893 16.385 C 105.893 9.977 109.724 5.502 115.755 5.502 C 118.56 5.502 120.723 6.335 122.657 7.966 Z" fill="#1E4C4E" fill-rule="nonzero"></path>
  <path d="M 18.815 45.738 L 9.913 47.489 L 9.446 45.272 L 11.157 44.844 C 10.068 43.911 9.524 42.772 9.524 41.422 C 9.524 40.283 9.932 39.298 10.748 38.47 C 11.564 37.64 12.62 37.225 13.917 37.225 C 14.901 37.225 15.951 37.537 17.066 38.158 L 16.482 41.073 C 16.041 40.711 15.537 40.528 14.966 40.528 C 14.422 40.528 13.981 40.711 13.645 41.073 C 13.308 41.436 13.138 41.865 13.138 42.357 C 13.138 43.134 13.463 43.705 14.111 44.067 L 18.192 42.978 L 18.815 45.738 Z M 28.183 33.726 L 28.183 60.471 L 11.818 60.471 C 9.615 60.471 7.716 60.331 6.123 60.044 C 4.528 59.758 3.11 59.014 1.865 57.809 C 0.621 56.604 0 54.731 0 52.192 C 0 50.455 0.297 48.497 0.894 46.322 L 6.53 46.632 L 6.337 48.576 C 6.206 49.664 6.142 50.351 6.142 50.638 C 6.142 51.544 6.472 52.393 7.133 53.183 C 7.794 53.974 9.019 54.369 10.807 54.369 L 21.497 54.369 L 21.497 33.726 L 28.183 33.726 Z" fill="#1E4C4E" fill-rule="nonzero"></path>
  <path d="M 40.094 53.434 C 40.6 54.056 41.578 54.367 43.029 54.367 L 45.362 54.367 L 45.362 46.397 C 44.532 46.346 43.768 46.321 43.068 46.321 C 42.394 46.321 41.798 46.397 41.28 46.553 C 40.761 46.708 40.308 47.104 39.92 47.739 C 39.531 48.375 39.336 49.353 39.336 50.674 C 39.336 51.891 39.589 52.812 40.094 53.434 Z M 51.679 61.987 C 51.432 63.8 50.642 65.608 49.308 67.409 C 47.973 69.21 45.854 70.112 42.951 70.112 C 41.266 70.112 38.805 69.825 35.565 69.255 L 35.565 63.192 C 39.116 63.735 41.358 64.008 42.291 64.008 C 43.431 64.008 44.195 63.735 44.585 63.192 C 44.973 62.647 45.153 61.739 45.128 60.47 L 41.397 60.47 C 38.909 60.47 37.024 59.991 35.741 59.032 C 34.458 58.073 33.622 56.927 33.233 55.592 C 32.845 54.257 32.65 52.76 32.65 51.103 C 32.65 47.965 33.071 45.608 33.914 44.027 C 34.755 42.446 35.831 41.415 37.139 40.937 C 38.448 40.457 40.049 40.217 41.94 40.217 C 43.755 40.217 45.57 40.334 47.383 40.567 C 49.196 40.8 50.752 41.059 52.048 41.345 L 52.048 56.388 C 52.048 58.307 51.925 60.172 51.679 61.987 Z" fill="#1E4C4E" fill-rule="nonzero"></path>
  <path d="M 69.389 41.812 C 70.994 42.953 72.219 44.585 73.063 46.71 C 73.904 48.836 74.326 51.349 74.326 54.253 L 74.326 60.471 L 55.277 60.471 L 55.277 54.369 L 67.638 54.369 C 67.561 51.544 66.964 49.496 65.851 48.227 C 64.737 46.957 63.414 46.322 61.885 46.322 L 57.416 46.322 L 56.91 40.996 C 59.838 40.4 62.067 40.102 63.597 40.102 C 65.851 40.102 67.782 40.673 69.389 41.812 Z" fill="#1E4C4E" fill-rule="nonzero"></path>
  <path d="M 77.641 69.954 L 77.641 63.929 L 78.224 63.967 C 79.624 63.967 80.323 62.906 80.323 60.78 L 80.323 40.993 L 87.009 40.993 L 87.009 59.808 C 87.009 62.97 86.466 65.471 85.377 67.311 C 84.288 69.151 82.643 70.071 80.44 70.071 C 79.869 70.071 78.936 70.032 77.641 69.954 Z" fill="#1E4C4E" fill-rule="nonzero"></path>
  <path d="M 91.868 33.726 L 98.555 33.726 L 98.555 60.471 L 91.868 60.471 L 91.868 33.726 Z" fill="#1E4C4E" fill-rule="nonzero"></path>
  <path d="M 117.72 41.812 C 119.326 42.953 120.552 44.585 121.394 46.71 C 122.236 48.836 122.658 51.349 122.658 54.253 L 122.658 60.471 L 103.609 60.471 L 103.609 54.369 L 115.971 54.369 C 115.894 51.544 115.297 49.496 114.183 48.227 C 113.068 46.957 111.747 46.322 110.218 46.322 L 105.747 46.322 L 105.242 40.996 C 108.169 40.4 110.399 40.102 111.929 40.102 C 114.183 40.102 116.114 40.673 117.72 41.812 Z" fill="#1E4C4E" fill-rule="nonzero"></path>
</svg>